<svg width="140px" height="28px" viewBox="0 0 153 31" version="1.1" 
  xmlns="http://www.w3.org/2000/svg" 
  xmlns:xlink="http://www.w3.org/1999/xlink" data-v-2d5112fa="">
  <g stroke="none" stroke-width="1" fill="none" fill-rule="evenodd" data-v-2d5112fa="">
    <g transform="translate(0.000000, -377.000000)" fill="#F8F8F8" data-v-2d5112fa="">
      <g transform="translate(0.000000, 377.000000)" data-v-2d5112fa="">
        <g data-v-2d5112fa="">
          <polygon points="5.91304348 31 11.5652174 31 11.5652174 27.704023 5.91304348 27.704023" data-v-2d5112fa=""></polygon>
          <polygon points="0 19.954023 3.2173913 19.954023 3.2173913 12.204023 0 12.204023" data-v-2d5112fa=""></polygon>
          <polygon points="13.9130435 31 19.5652174 31 19.5652174 27.704023 13.9130435 27.704023" data-v-2d5112fa=""></polygon>
          <path d="M0.52173913,23.829023 C0.52173913,25.3295639 1.72874757,26.545977 3.2173913,26.545977 L3.2173913,21.112069 C1.72874757,21.112069 0.52173913,22.328482 0.52173913,23.829023" data-v-2d5112fa=""></path>
          <polygon points="22.7826087 19.954023 26 19.954023 26 12.204023 22.7826087 12.204023" data-v-2d5112fa=""></polygon>
          <path d="M22.7826087,21.112069 L22.7826087,26.545977 C24.2710891,26.545977 25.4782609,25.3293325 25.4782609,23.8288739 C25.4782609,22.3284153 24.2710891,21.112069 22.7826087,21.112069" data-v-2d5112fa=""></path>
          <path d="M9.47675955,7.92646792 C8.26556756,7.92646792 7.28385226,6.91937484 7.28385226,5.67754352 C7.28385226,4.43571221 8.26556756,3.42861912 9.47675955,3.42861912 C10.6879515,3.42861912 11.6693741,4.43571221 11.6693741,5.67754352 C11.6693741,6.91937484 10.6879515,7.92646792 9.47675955,7.92646792 Z M16.4359912,3.42861912 C17.6474759,3.42861912 18.6291912,4.43571221 18.6291912,5.67754352 C18.6291912,6.91937484 17.6474759,7.92646792 16.4359912,7.92646792 C15.2253846,7.92646792 14.2430839,6.91937484 14.2430839,5.67754352 C14.2430839,4.43571221 15.2253846,3.42861912 16.4359912,3.42861912 Z M10.1362123,11.1350575 L15.7768312,11.1350575 L15.7768312,9.75514484 L20.6956522,9.75514484 L20.6956522,1.59994221 L15.9003505,1.59994221 C15.2537765,0.634273526 14.1704944,0 12.9417404,0 C11.7135718,0 10.6297043,0.634273526 9.98283759,1.59994221 L5.2173913,1.59994221 L5.2173913,9.75514484 L10.1362123,9.75514484 L10.1362123,11.1350575 Z" data-v-2d5112fa=""></path>
          <path d="M9.47855656,4.54310345 C8.85464409,4.54310345 8.34782609,5.06145967 8.34782609,5.70099795 C8.34782609,6.34083918 8.85464409,6.8591954 9.47855656,6.8591954 C10.102469,6.8591954 10.6086957,6.34083918 10.6086957,5.70099795 C10.6086957,5.06145967 10.102469,4.54310345 9.47855656,4.54310345" data-v-2d5112fa=""></path>
          <path d="M16.5220348,6.8591954 C17.1456516,6.8591954 17.6521739,6.34083918 17.6521739,5.7013009 C17.6521739,5.06145967 17.1456516,4.54310345 16.5220348,4.54310345 C15.8978267,4.54310345 15.3913043,5.06145967 15.3913043,5.7013009 C15.3913043,6.34083918 15.8978267,6.8591954 16.5220348,6.8591954" data-v-2d5112fa=""></path>
          <polygon points="4.26086957 13.0057471 4.26086957 25.7442529 10.5217391 19.3751497" data-v-2d5112fa=""></polygon>
          <polygon points="20.9565217 12.204023 5.04347826 12.204023 13.0001465 20.3103448" data-v-2d5112fa=""></polygon>
          <polygon points="12.9997079 21.8956994 12.9962031 21.8851933 12.9944507 21.8902962 11.2838073 20.1321839 5.04347826 26.545977 20.9565217 26.545977 14.7159006 20.1321839" data-v-2d5112fa=""></polygon>
          <polygon points="21.7391304 25.7442529 21.7391304 13.0057471 15.4782609 19.3745507" data-v-2d5112fa=""></polygon>
        </g>
        <g transform="translate(30.000000, 13.000000)" data-v-2d5112fa="">
          <path d="M5.53574208,8.06883712 L8.26531658,8.06883712 C9.13729907,8.06883712 9.53036453,8.04107081 9.70767886,7.86957297 C9.98767838,7.62212609 10.1195419,7.26551948 10.1195419,5.99643548 C10.1195419,4.76600656 9.97477259,4.40504444 9.70599549,4.17066407 C9.53176733,4.02584367 9.29272966,3.97167213 8.26531658,3.97167213 L5.53686432,3.97167213 L5.53574208,8.06883712 Z M1.05350522,17.4881517 C0.471903004,17.4881517 0,17.0297352 0,16.4656979 L0,1.02190933 C0,0.457872003 0.471903004,0 1.05350522,0 L10.8397411,0 C12.5062713,0 13.5695961,0.245813566 14.1862684,0.774190236 C15.0428201,1.50727543 15.8342817,2.64950547 15.8342817,6.02093517 C15.8342817,9.39318153 15.0428201,10.5354116 14.1862684,11.2668635 C13.5695961,11.7952401 12.5062713,12.0415981 10.8397411,12.0415981 L5.53574208,12.0415981 L5.53574208,16.4656979 C5.53574208,17.0297352 5.06411963,17.4881517 4.48223686,17.4881517 L1.05350522,17.4881517 Z" data-v-2d5112fa=""></path>
          <path d="M21.3707219,18 C20.1108128,18 19.274178,17.7528542 18.7418491,17.2224749 C18.122497,16.6073442 17.9338549,15.7748674 17.9338549,13.6593648 L17.9338549,4.95130209 C17.9338549,4.38483512 18.3959593,3.92417062 18.9673935,3.92417062 L22.0286286,3.92417062 C22.5992367,3.92417062 23.0638196,4.38483512 23.0638196,4.95130209 L23.0638196,12.9821743 C23.0638196,13.4874016 23.1337686,13.7550518 23.3160768,13.9365837 C23.5000373,14.1181156 23.7401774,14.1864634 24.2014556,14.1864634 C25.5976828,14.1864634 26.450841,13.8600341 26.450841,13.8600341 L26.450841,4.95130209 C26.450841,4.38483512 26.9132208,3.92417062 27.4843796,3.92417062 L30.5469917,3.92417062 C31.1178751,3.92417062 31.5810811,4.38483512 31.5810811,4.95130209 L31.5810811,16.9485367 C31.5810811,17.5152771 31.1178751,17.9753948 30.5469917,17.9753948 L27.4843796,17.9753948 C26.9132208,17.9753948 26.450841,17.5152771 26.450841,16.9485367 L26.450841,15.9186713 C24.6597045,17.6700166 24.0499911,18 22.6088753,18 L21.3707219,18 Z" data-v-2d5112fa=""></path>
          <path d="M37.7685336,18 C36.2756836,18 35.5785053,17.8148638 35.1075582,17.2950583 C34.6230923,16.762107 34.3935505,15.9993787 34.295333,14.5755279 C34.2762965,14.2898813 34.3758934,14.0108076 34.5709488,13.8021186 C34.7676596,13.5939773 35.0413442,13.4756654 35.3288233,13.4756654 L37.7569461,13.4756654 C38.2168576,13.4756654 38.6215907,13.7758271 38.7515357,14.214567 C38.7691928,14.2739968 38.7929195,14.3208286 38.8309925,14.379163 C38.9391421,14.5569047 39.321528,14.5569047 39.4644399,14.5569047 L41.9965739,14.5569047 C42.3635098,14.5569047 42.5679456,14.518289 42.6562309,14.4301028 C42.7467234,14.3402734 42.7566555,14.136514 42.7566555,13.7270782 C42.7566555,13.3463987 42.7199619,13.1870063 42.6046392,13.0730763 C42.4906959,12.9596941 42.2137006,12.8912265 41.5910131,12.8216635 L37.1615719,12.2695413 C36.1540154,12.1534204 35.5823678,11.9343243 35.1348714,11.4892853 C34.5952273,10.9546908 34.4261057,10.4488527 34.4261057,8.3230727 C34.4261057,6.09733013 35.0201005,5.04457333 35.5167056,4.55188096 C35.9625465,4.10656813 36.5568173,3.92417062 37.5660291,3.92417062 L43.6682017,3.92417062 C45.3676945,3.92417062 46.0756326,4.2892395 46.3694573,4.59597405 C46.8296447,5.05005074 47.0293902,5.75170602 47.1204345,7.25853949 C47.1375398,7.54062573 47.0354599,7.81915166 46.8406803,8.025102 C46.6442454,8.23105234 46.3719403,8.34826875 46.0855647,8.34826875 L43.629301,8.34826875 C43.1991858,8.34826875 42.8151446,8.08507956 42.661197,7.68769399 C42.6465747,7.65126926 42.6233998,7.60799778 42.5861544,7.5537715 C42.4719353,7.36836142 42.1168627,7.36836142 41.9471893,7.36836142 L39.7941305,7.36836142 C39.3819483,7.36836142 39.2412435,7.38808007 39.1107467,7.51871612 C39.0221855,7.60525908 38.9843883,7.71015134 38.9843883,8.09685597 C38.9843883,8.4542565 39.0161159,8.63692787 39.2111713,8.7760539 C39.3491171,8.85575011 39.499754,8.90340351 40.0976113,8.97625297 L44.7563185,9.52864903 C45.7249743,9.64367449 46.3153825,9.86934348 46.731979,10.2845306 C47.2244457,10.7722933 47.4153627,11.6746954 47.4153627,13.5003137 C47.4153627,15.3774196 47.0514616,16.6520112 46.3026915,17.3961164 C45.8692657,17.8239015 45.2766503,18 44.2500573,18 L37.7685336,18 Z" data-v-2d5112fa=""></path>
          <path d="M59.1537691,17.4881517 C58.5826103,17.4881517 58.1191289,17.0297281 58.1191289,16.465682 L58.1191289,8.54426413 C58.1191289,8.04065153 58.0472521,7.77414519 57.8674225,7.59393354 C57.6815342,7.41208856 57.4433219,7.34457725 56.9814929,7.34457725 L56.5521599,7.34457725 C56.1776295,7.34457725 55.8314643,7.39194406 55.3919419,7.5035555 C55.351735,7.51253886 55.3104265,7.5201611 55.2702195,7.52587779 C55.2322157,7.54193895 54.8802673,7.64728926 54.7307305,7.69438384 L54.7323829,16.465682 C54.7323829,17.0297281 54.2689015,17.4881517 53.6974673,17.4881517 L50.6359568,17.4881517 C50.064798,17.4881517 49.6024182,17.0297281 49.6024182,16.465682 L49.6024182,1.02192524 C49.6024182,0.457606907 50.064798,0 50.6359568,0 L53.6974673,0 C54.2689015,0 54.7323829,0.457606907 54.7323829,1.02192524 L54.7323829,5.57104423 C56.4926757,3.80567791 57.1037661,3.47247692 58.5740732,3.47247692 L59.8127773,3.47247692 C61.0710342,3.47247692 61.9060166,3.71802209 62.4416502,4.24586254 C63.0607269,4.8589088 63.2496444,5.68837236 63.2496444,7.79510636 L63.2496444,16.465682 C63.2496444,17.0297281 62.7867138,17.4881517 62.2158304,17.4881517 L59.1537691,17.4881517 Z" data-v-2d5112fa=""></path>
          <path d="M70.9503489,6.86982029 L74.5977688,6.86982029 C75.0893899,6.86982029 75.2897851,6.85539247 75.4566865,6.69478089 C75.6846148,6.44406348 75.8219962,5.96767318 75.8219962,5.3211435 C75.8219962,4.70864169 75.708174,4.28751267 75.4822326,4.07163981 C75.3332135,3.92790605 75.0848484,3.87155588 74.5977688,3.87155588 L70.9503489,3.87155588 L70.9503489,6.86982029 Z M70.9503489,13.6152347 L74.6752587,13.6152347 C75.1870329,13.6152347 75.4419265,13.5548012 75.6136533,13.3903784 C75.8211447,13.1927445 75.9786791,12.9640772 75.9786791,11.9906076 C75.9786791,11.025577 75.8583285,10.7283095 75.6389156,10.51652 C75.4524288,10.3373972 75.1819237,10.2677081 74.6752587,10.2677081 L70.9503489,10.2677081 L70.9503489,13.6152347 Z M66.4161944,17.4881517 C65.827498,17.4881517 65.3492176,17.0297281 65.3492176,16.465682 L65.3492176,1.02192524 C65.3492176,0.457606907 65.827498,0 66.4161944,0 L76.7592554,0 C78.410387,0 79.5114253,0.316867603 80.2235947,0.997969615 C81.0810932,1.82035538 81.5531289,3.02684783 81.5531289,4.39640188 C81.5531289,6.83905909 80.6388612,8.04065153 78.4007363,8.54399191 C80.4418722,9.04651561 81.7083926,9.91164039 81.7083926,12.8157156 C81.7083926,14.3643924 81.2579291,15.5496515 80.32805,16.4390041 C79.5931729,17.1440618 78.4336624,17.4881517 76.7853692,17.4881517 L66.4161944,17.4881517 Z" data-v-2d5112fa=""></path>
          <path d="M89.2788833,14.0284126 C89.4327995,14.2294294 89.6378349,14.2540772 90.1764018,14.2540772 L91.6124874,14.2540772 C92.1502164,14.2540772 92.3560897,14.2045077 92.5094472,14.0284126 C92.6630841,13.8528653 92.7653224,13.4250884 92.7653224,10.9624961 C92.7653224,8.49935605 92.6630841,8.07240082 92.5094472,7.89521029 C92.3560897,7.71938908 92.1502164,7.66954569 91.6124874,7.66954569 L90.1764018,7.66954569 C89.6378349,7.66954569 89.4327995,7.69419352 89.2788833,7.89521029 C89.1252465,8.07240082 89.0224494,8.49935605 89.0224494,10.9624961 C89.0224494,13.4250884 89.1252465,13.8528653 89.2788833,14.0284126 M85.2804144,17.0948768 C84.3312181,16.1401841 83.8954481,14.7073234 83.8954481,10.9624961 C83.8954481,7.21766876 84.3312181,5.78508197 85.2804144,4.8292938 C85.9206611,4.15120454 86.6394022,3.92417062 88.1511888,3.92417062 L93.6377004,3.92417062 C95.1506044,3.92417062 95.8419702,4.15120454 96.5093128,4.8292938 C97.4576712,5.78508197 97.8926031,7.21766876 97.8926031,10.9624961 C97.8926031,14.7322451 97.4576712,16.1401841 96.5093128,17.0948768 C95.8419702,17.7737877 95.1506044,18 93.6377004,18 L88.1511888,18 C86.6394022,18 85.946081,17.7737877 85.2804144,17.0948768" data-v-2d5112fa=""></path>
          <path d="M113.353776,18 C111.860915,18 111.164688,17.8148638 110.6941,17.2950583 C110.208065,16.762107 109.979115,15.9993787 109.880088,14.5755279 C109.860503,14.2898813 109.960358,14.0108076 110.157862,13.8021186 C110.352607,13.5939773 110.62707,13.4756654 110.915326,13.4756654 L113.343019,13.4756654 C113.802297,13.4756654 114.206958,13.7758271 114.33688,14.214567 C114.355362,14.2739968 114.377429,14.3208286 114.416599,14.379163 C114.524178,14.5569047 114.905668,14.5569047 115.05021,14.5569047 L117.581068,14.5569047 C117.949318,14.5569047 118.153442,14.518289 118.240332,14.4301028 C118.33136,14.3402734 118.341566,14.136514 118.341566,13.7270782 C118.341566,13.3463987 118.304328,13.1870063 118.188198,13.0730763 C118.074275,12.9596941 117.798708,12.8912265 117.175303,12.8216635 L112.745819,12.2695413 C111.740372,12.1534204 111.167446,11.9343243 110.719478,11.4892853 C110.181308,10.9546908 110.01332,10.4488527 110.01332,8.3230727 C110.01332,6.09733013 110.604175,5.04457333 111.101796,4.55188096 C111.547282,4.10656813 112.141447,3.92417062 113.150756,3.92417062 L119.251848,3.92417062 C120.951867,3.92417062 121.659128,4.2892395 121.952901,4.59597405 C122.411903,5.05005074 122.614096,5.75170602 122.704296,7.25853949 C122.721675,7.54062573 122.619889,7.81915166 122.422937,8.025102 C122.228192,8.23105234 121.955659,8.34826875 121.670162,8.34826875 L119.212126,8.34826875 C118.784018,8.34826875 118.399218,8.08507956 118.245573,7.68769399 C118.232057,7.65126926 118.208058,7.60799778 118.171371,7.5537715 C118.055517,7.36836142 117.702163,7.36836142 117.530037,7.36836142 L115.379566,7.36836142 C114.966078,7.36836142 114.827329,7.38808007 114.694648,7.51871612 C114.608034,7.60525908 114.568588,7.71015134 114.568588,8.09685597 C114.568588,8.4542565 114.600586,8.63692787 114.795883,8.7760539 C114.935183,8.85575011 115.084139,8.90340351 115.682166,8.97625297 L120.340599,9.52864903 C121.307704,9.64367449 121.899111,9.86934348 122.316737,10.2845306 C122.80691,10.7722933 123,11.6746954 123,13.5003137 C123,15.3774196 122.634232,16.6520112 121.885043,17.3961164 C121.453349,17.8239015 120.859736,18 119.835531,18 L113.353776,18 Z" data-v-2d5112fa=""></path>
          <path d="M106.616821,7.36796777 C107.209277,7.36796777 107.690612,6.90068065 107.690612,6.32393388 L107.690612,4.61258508 C107.690612,4.03694958 107.209277,3.56855119 106.616821,3.56855119 L104.176726,3.56855119 L104.176726,1.04264481 C104.176726,0.467009307 103.695963,0 103.104364,0 L99.9284123,0 C99.3370991,0 98.8549075,0.467009307 98.8549075,1.04264481 L98.8549075,2.72260036 L98.8549075,3.56855119 L98.8549075,7.36796777 L98.8549075,8.65453535 L98.8549075,14.201139 C98.8549075,16.030282 99.1371382,16.6698153 99.5893356,17.1084873 C100.016681,17.5229893 100.747967,18 102.631599,18 C104.219003,18 105.627586,17.8013613 106.407148,17.6180025 L106.832779,17.5224337 C107.320398,17.4126962 107.664331,16.9918044 107.664331,16.5056258 L107.664331,15.066537 C107.664331,14.4909015 107.182996,14.0225031 106.590826,14.0225031 L105.435338,14.0225031 C104.874304,14.0225031 104.542083,13.9949993 104.388113,13.8430338 C104.232144,13.6932907 104.176726,13.4402 104.176726,12.875955 L104.176726,7.36796777 L106.616821,7.36796777 Z" data-v-2d5112fa=""></path>
        </g>
      </g>
    </g>
  </g>
</svg>