<svg width="26px" height="28px" viewBox="0 0 26 31" version="1.1" 
  xmlns="http://www.w3.org/2000/svg" 
  xmlns:xlink="http://www.w3.org/1999/xlink" data-v-2d5112fa="">
  <g stroke="none" stroke-width="1" fill="none" fill-rule="evenodd" data-v-2d5112fa="">
    <g transform="translate(0.000000, -377.000000)" fill="#F8F8F8" data-v-2d5112fa="">
      <g transform="translate(0.000000, 377.000000)" data-v-2d5112fa="">
        <g data-v-2d5112fa="">
          <polygon points="5.91304348 31 11.5652174 31 11.5652174 27.704023 5.91304348 27.704023" data-v-2d5112fa=""></polygon>
          <polygon points="0 19.954023 3.2173913 19.954023 3.2173913 12.204023 0 12.204023" data-v-2d5112fa=""></polygon>
          <polygon points="13.9130435 31 19.5652174 31 19.5652174 27.704023 13.9130435 27.704023" data-v-2d5112fa=""></polygon>
          <path d="M0.52173913,23.829023 C0.52173913,25.3295639 1.72874757,26.545977 3.2173913,26.545977 L3.2173913,21.112069 C1.72874757,21.112069 0.52173913,22.328482 0.52173913,23.829023" data-v-2d5112fa=""></path>
          <polygon points="22.7826087 19.954023 26 19.954023 26 12.204023 22.7826087 12.204023" data-v-2d5112fa=""></polygon>
          <path d="M22.7826087,21.112069 L22.7826087,26.545977 C24.2710891,26.545977 25.4782609,25.3293325 25.4782609,23.8288739 C25.4782609,22.3284153 24.2710891,21.112069 22.7826087,21.112069" data-v-2d5112fa=""></path>
          <path d="M9.47675955,7.92646792 C8.26556756,7.92646792 7.28385226,6.91937484 7.28385226,5.67754352 C7.28385226,4.43571221 8.26556756,3.42861912 9.47675955,3.42861912 C10.6879515,3.42861912 11.6693741,4.43571221 11.6693741,5.67754352 C11.6693741,6.91937484 10.6879515,7.92646792 9.47675955,7.92646792 Z M16.4359912,3.42861912 C17.6474759,3.42861912 18.6291912,4.43571221 18.6291912,5.67754352 C18.6291912,6.91937484 17.6474759,7.92646792 16.4359912,7.92646792 C15.2253846,7.92646792 14.2430839,6.91937484 14.2430839,5.67754352 C14.2430839,4.43571221 15.2253846,3.42861912 16.4359912,3.42861912 Z M10.1362123,11.1350575 L15.7768312,11.1350575 L15.7768312,9.75514484 L20.6956522,9.75514484 L20.6956522,1.59994221 L15.9003505,1.59994221 C15.2537765,0.634273526 14.1704944,0 12.9417404,0 C11.7135718,0 10.6297043,0.634273526 9.98283759,1.59994221 L5.2173913,1.59994221 L5.2173913,9.75514484 L10.1362123,9.75514484 L10.1362123,11.1350575 Z" data-v-2d5112fa=""></path>
          <path d="M9.47855656,4.54310345 C8.85464409,4.54310345 8.34782609,5.06145967 8.34782609,5.70099795 C8.34782609,6.34083918 8.85464409,6.8591954 9.47855656,6.8591954 C10.102469,6.8591954 10.6086957,6.34083918 10.6086957,5.70099795 C10.6086957,5.06145967 10.102469,4.54310345 9.47855656,4.54310345" data-v-2d5112fa=""></path>
          <path d="M16.5220348,6.8591954 C17.1456516,6.8591954 17.6521739,6.34083918 17.6521739,5.7013009 C17.6521739,5.06145967 17.1456516,4.54310345 16.5220348,4.54310345 C15.8978267,4.54310345 15.3913043,5.06145967 15.3913043,5.7013009 C15.3913043,6.34083918 15.8978267,6.8591954 16.5220348,6.8591954" data-v-2d5112fa=""></path>
          <polygon points="4.26086957 13.0057471 4.26086957 25.7442529 10.5217391 19.3751497" data-v-2d5112fa=""></polygon>
          <polygon points="20.9565217 12.204023 5.04347826 12.204023 13.0001465 20.3103448" data-v-2d5112fa=""></polygon>
          <polygon points="12.9997079 21.8956994 12.9962031 21.8851933 12.9944507 21.8902962 11.2838073 20.1321839 5.04347826 26.545977 20.9565217 26.545977 14.7159006 20.1321839" data-v-2d5112fa=""></polygon>
          <polygon points="21.7391304 25.7442529 21.7391304 13.0057471 15.4782609 19.3745507" data-v-2d5112fa=""></polygon>
        </g>
      </g>
    </g>
  </g>
</svg>